# xmcd
# 
# Track frame offsets:
#     150
#     28267
#     55997
#     85555
#     109442
#     126582
#     146912
# 
# Disc length: 2409
# 
# Revision: 2
# Processed by: cddbd v1.5.2PL0 Copyright (c) Steve Scherf et al.
# Submitted via: BonkEnc v1.0
# 
DISCID=69096707
DTITLE=Johnny Guitar Watson - What The Hell Is This
DYEAR=0
DGENRE=Funk
TTITLE0=What The Hell Is This?
TTITLE1=In the World
TTITLE2=Proud of You
TTITLE3=Cop and Blow
TTITLE4=I Don't Want to Be President
TTITLE5=Mother In Law
TTITLE6=Strung Out
EXTD=
EXTT0=
EXTT1=
EXTT2=
EXTT3=
EXTT4=
EXTT5=
EXTT6=
PLAYORDER=
